<?xml version="1.0" standalone="no"?><!DOCTYPE svg PUBLIC "-//W3C//DTD SVG 1.1//EN" "http://www.w3.org/Graphics/SVG/1.1/DTD/svg11.dtd"><svg t="1563449424369" class="icon" viewBox="0 0 1024 1024" version="1.1" xmlns="http://www.w3.org/2000/svg" p-id="6944" xmlns:xlink="http://www.w3.org/1999/xlink" width="24" height="24"><defs><style type="text/css"></style></defs><path d="M825.06752 71.8336l-512 0c-11.30496 0-20.48 9.17504-20.48 20.48l0 306.18624 28.17024 0c-8.46848-10.81344-13.06624-24.064-13.06624-38.01088-0.01024-16.51712 6.43072-32.0512 18.11456-43.7248 2.4064-2.4064 5.02784-4.54656 7.75168-6.5024L333.55776 112.7936l471.04 0 0 14.71488-215.04 156.12928 0 668.53888 216.20736-156.9792c2.75456 8.06912 10.31168 13.91616 19.31264 13.91616 11.30496 0 20.48-9.17504 20.48-20.48l0-696.32C845.54752 80.9984 836.38272 71.8336 825.06752 71.8336zM670.79168 633.47712c-9.65632 0-17.70496-11.9296-19.78368-27.89376l-23.06048 0 0-17.92 23.38816 0c2.44736-14.99136 10.17856-26.01984 19.44576-26.01984 11.22304 0 20.31616 16.0768 20.31616 35.92192C691.10784 617.40032 682.01472 633.47712 670.79168 633.47712zM325.81632 603.86304c2.4064 2.39616 5.0176 4.52608 7.7312 6.47168l0 178.29888c0 11.30496-9.17504 20.48-20.48 20.48s-20.48-9.17504-20.48-20.48L292.58752 522.09664l28.17024 0C301.83424 546.33472 303.50336 581.53984 325.81632 603.86304zM472.29952 441.30304c8.15104 8.15104 8.15104 21.32992 0 29.48096l-99.80928 99.81952c-4.06528 4.05504-9.40032 6.10304-14.73536 6.11328-5.33504-0.01024-10.67008-2.048-14.73536-6.11328-8.1408-8.1408-8.13056-21.34016 0-29.47072l64.24576-64.24576-207.9744 0c-11.50976 0-20.8384-9.32864-20.8384-20.8384s9.3184-20.8384 20.84864-20.8384l207.95392 0-64.23552-64.24576c-8.13056-8.13056-8.1408-21.32992 0-29.46048 8.1408-8.1408 21.34016-8.1408 29.48096 0L472.29952 441.30304z" p-id="6945" fill="#ffffff"></path></svg>